<svg width="308" height="407" fill="none" xmlns="http://www.w3.org/2000/svg"><path d="M22.892 68.01c1.604 8.132 13.249 26.242 46.993 33.629 42.181 9.233 43.461 28.082 46.703 52.584 3.242 24.502-2.731 40.494 38.468 46.901 41.2 6.407 20.057 43.611 59.819 44.33 39.762.719 39.046 10.466 51.966 41.938" stroke="url(#paint0_linear)" stroke-width="3"/><path d="M38.706 69.923c.697 9 10.979 30.074 46.533 42.372 44.442 15.373 39.781 39.361 40.159 66.275.378 26.914 16.836 35.671 56.624 39.321 37.78 3.465 16.614 62.881 59.528 68.736 42.913 5.854 38.939 11.278 48.894 46.967" stroke="url(#paint1_linear)" stroke-width="3"/><defs><linearGradient id="paint0_linear" x1="252.271" y1="258.655" x2="49.312" y2="102.675" gradientUnits="userSpaceOnUse"><stop stop-color="#FDA483" stop-opacity="0"/><stop offset=".517" stop-color="#F7D366"/><stop offset="1" stop-color="#FDA483" stop-opacity="0"/></linearGradient><linearGradient id="paint1_linear" x1="277.845" y1="301.791" x2="61.766" y2="96.762" gradientUnits="userSpaceOnUse"><stop stop-color="#F7D366" stop-opacity="0"/><stop offset=".38" stop-color="#FDA483"/><stop offset=".757" stop-color="#F7D266"/><stop offset="1" stop-color="#F7D266" stop-opacity=".05"/></linearGradient></defs></svg>