<svg width="275" height="366" fill="none" xmlns="http://www.w3.org/2000/svg"><path d="M254.358 60.102c-1.382 7.332-11.724 23.725-42.044 30.635-37.9 8.638-38.906 25.616-41.635 47.697-2.729 22.082 2.772 36.432-34.266 42.518-37.039 6.086-17.718 39.413-53.506 40.368-35.788.954-35.068 9.723-46.456 38.153" stroke="url(#paint0_linear)" stroke-width="3"/><path d="M240.137 61.946c-.558 8.107-9.651 27.158-41.562 38.503-39.888 14.182-35.506 35.739-35.639 59.97-.132 24.232-14.88 32.242-50.668 35.835-33.983 3.411-14.47 56.734-53.055 62.336-38.585 5.601-34.966 10.453-43.652 42.657" stroke="url(#paint1_linear)" stroke-width="3"/><defs><linearGradient id="paint0_linear" x1="49.345" y1="233.493" x2="230.843" y2="91.511" gradientUnits="userSpaceOnUse"><stop stop-color="#FDA483" stop-opacity="0"/><stop offset=".517" stop-color="#F7D366"/><stop offset="1" stop-color="#FDA483" stop-opacity="0"/></linearGradient><linearGradient id="paint1_linear" x1="26.657" y1="272.521" x2="219.585" y2="86.285" gradientUnits="userSpaceOnUse"><stop stop-color="#F7D366" stop-opacity="0"/><stop offset=".38" stop-color="#FDA483"/><stop offset=".757" stop-color="#F7D266"/><stop offset="1" stop-color="#F7D266" stop-opacity=".05"/></linearGradient></defs></svg>