<svg width="175" height="138" fill="none" xmlns="http://www.w3.org/2000/svg"><g filter="url(#filter0_dii)"><path d="M101.454 47.25a17.86 17.86 0 013.435-3.615 16.77 16.77 0 015.511-2.91 16.275 16.275 0 014.822-.725c1.52 0 2.859 1.049 3.297 2.576l1.339 4.674 6.342 22.122.652 2.277a3.772 3.772 0 01-.677 3.405c-.765.937-1.917 1.409-3.095 1.232a4.192 4.192 0 00-.65-.036c-9.828.002-17.541 8.019-17.541 18.125 0 2.003-1.541 3.625-3.445 3.625C99.541 98 98 96.378 98 94.375v-36.25c0-4.077 1.286-7.842 3.454-10.875z" fill="#47BCF3"/></g><g filter="url(#filter1_dii)"><path d="M45.5 97h28c1.934 0 3.5 1.64 3.5 3.667 0 1.254-.121 2.481-.352 3.666C75.024 112.691 67.95 119 59.5 119s-15.524-6.309-17.148-14.667a19.157 19.157 0 01-.352-3.666C42 98.64 43.566 97 45.5 97z" fill="#FF5722"/></g><g filter="url(#filter2_iii)"><path d="M59 111c4.608 0 8.54-2.926 10-7H49c1.46 4.074 5.392 7 10 7z" fill="#EDF9FF"/></g><g filter="url(#filter3_dii)"><path d="M91 43.5c0 1.935 1.565 3.5 3.5 3.5h14c1.935 0 3.5-1.565 3.5-3.5s-1.565-3.5-3.5-3.5h-14a3.498 3.498 0 00-3.5 3.5z" fill="#FF5722"/></g><path d="M52.5 90h7c1.935 0 3.5-1.565 3.5-3.5S61.435 83 59.5 83h-7a3.498 3.498 0 00-3.5 3.5c0 1.935 1.565 3.5 3.5 3.5z" fill="#000"/><g filter="url(#filter4_dii)"><path d="M48.615 54h24.77C79.237 54 84 58.935 84 65v6.844l-6.792 3.86a2.265 2.265 0 01-1.12.296H48.615c-3.394 0-6.423-1.662-8.37-4.241A11.205 11.205 0 0138 65c0-6.065 4.763-11 10.615-11z" fill="#47BCF3"/></g><g filter="url(#filter5_dii)"><path d="M28.306 90.608c1.68-6.768 4.268-12.168 7.837-15.984.084-.091.166-.18.252-.266a19.81 19.81 0 011.854-1.704c.15-.118.299-.236.45-.35.068-.054.136-.104.203-.154.133-.101.27-.2.408-.298l.061-.043c.184-.13.37-.258.558-.383l.017-.012.017-.012c.188-.123.377-.246.57-.366a.072.072 0 01.04-.012h42.644c.318 0 .576.258.576.576a3.65 3.65 0 01-.679 2.132l-.003.003c-.16.183-.352.36-.645.685l-.012.012a17.337 17.337 0 00-2.386 3.377c-.136.24-.452.854-.762 1.596-.836 2.036-1.32 4.195-1.32 6.595 0 3.658 1.21 7.08 3.263 9.94.398.556 1.052.86 1.736.86h12.77a2.266 2.266 0 002.266-2.266V93.2c0-13.896 10.985-25.2 24.489-25.2.63 0 1.33 0 1.68.072.837.058 1.663.156 2.474.298C138.261 70.386 147 80.818 147 93.2v4.604c0 1.191-.922 2.18-2.111 2.261l-2.465.169c-1.309.09-2.399-.96-2.682-2.243-1.06-4.811-5.232-8.391-10.235-8.391-5.807 0-10.495 4.824-10.495 10.8 0 2.016-1.54 3.6-3.499 3.6H38.522c-3.289 0-6.297-1.512-8.326-4.176-1.96-2.664-2.66-5.976-1.89-9.216z" fill="#47BCF3"/></g><g filter="url(#filter6_dii)"><path d="M53.825 27h18.35C75.938 27 79 30.14 79 34v3.855c0 .17-.057.335-.162.468l-1.886 2.39a.755.755 0 01-.593.287H49.566a.755.755 0 01-.507-.195l-1.81-1.639a.756.756 0 01-.249-.56V34c0-3.86 3.062-7 6.825-7z" fill="#FF5722"/></g><g filter="url(#filter7_dii)"><path d="M78.85 37a.15.15 0 01.15.15V50.5c0 2.486-2.037 4.5-4.55 4.5h-22.9C49.037 55 47 52.986 47 50.5V37h31.85z" fill="#FF5722"/></g><g filter="url(#filter8_dii)"><path d="M126.565 83.28c10.493-1.946 20.148 6.537 20.428 17.237.005.158.007.319.007.48 0 .901-.08 1.822-.189 2.38a3.548 3.548 0 00-.054.343c-.1.972-.339 1.987-.707 3.028-1.6 4.891-5.182 8.844-9.828 10.849a17.005 17.005 0 01-6.766 1.403c-2.793 0-5.631-.679-8.34-2.027-4.559-2.271-7.793-6.927-8.789-12.378a19.874 19.874 0 01-.327-3.598c0-8.805 6.141-16.257 14.565-17.718z" fill="#FF5722"/></g><g filter="url(#filter9_dii)"><path d="M115.498 25l8.748.611c1.934 0 1.749 1.03 1.749 3.056v14.666c0 2.027-1.565 3.667-3.499 3.667H105V36c0-6.065 4.71-11 10.498-11z" fill="#47BCF3"/></g><g filter="url(#filter10_iii)"><path d="M129.5 112c5.79 0 10.5-4.934 10.5-11s-4.71-11-10.5-11-10.5 4.934-10.5 11 4.71 11 10.5 11z" fill="#EDF9FF"/></g><g filter="url(#filter11_dii)"><path d="M30.222 99.821c2.053 2.666 5.098 4.179 8.426 4.179h47.086A2.266 2.266 0 0088 101.734v-2.673a2.266 2.266 0 00-2.266-2.266h-2.113c-.68 0-1.33-.3-1.729-.85-2.082-2.865-3.31-6.293-3.31-9.958 0-2.402.488-4.556 1.337-6.6.195-.484.576-1.257.771-1.597a17.361 17.361 0 012.415-3.38l.012-.011c.268-.294.477-.487.652-.686l.004-.003v-.002a3.626 3.626 0 00.687-2.132V71H40.724a.074.074 0 00-.042.012c-.195.12-.386.244-.576.367l-.018.011-.016.012c-.19.125-.38.253-.565.383l-.061.044c-.14.098-.279.197-.414.297l-.205.154c-.153.115-.304.233-.455.35a19.971 19.971 0 00-2.132 1.973c-3.61 3.818-6.23 9.222-7.93 15.995-.779 3.243-.07 6.557 1.912 9.223z" fill="#47BCF3"/></g><defs><filter id="filter0_dii" x="70.054" y="15.075" width="84.893" height="113.893" filterUnits="userSpaceOnUse" color-interpolation-filters="sRGB"><feFlood flood-opacity="0" result="BackgroundImageFix"/><feColorMatrix in="SourceAlpha" values="0 0 0 0 0 0 0 0 0 0 0 0 0 0 0 0 0 0 127 0" result="hardAlpha"/><feOffset dy="3.021"/><feGaussianBlur stdDeviation="13.973"/><feColorMatrix values="0 0 0 0 0.110625 0 0 0 0 0.361375 0 0 0 0 0.7375 0 0 0 0.15 0"/><feBlend in2="BackgroundImageFix" result="effect1_dropShadow"/><feBlend in="SourceGraphic" in2="effect1_dropShadow" result="shape"/><feColorMatrix in="SourceAlpha" values="0 0 0 0 0 0 0 0 0 0 0 0 0 0 0 0 0 0 127 0" result="hardAlpha"/><feOffset dx="3.777" dy="3.021"/><feGaussianBlur stdDeviation="4.91"/><feComposite in2="hardAlpha" operator="arithmetic" k2="-1" k3="1"/><feColorMatrix values="0 0 0 0 0.4875 0 0 0 0 0.836119 0 0 0 0 1 0 0 0 0.82 0"/><feBlend in2="shape" result="effect2_innerShadow"/><feColorMatrix in="SourceAlpha" values="0 0 0 0 0 0 0 0 0 0 0 0 0 0 0 0 0 0 127 0" result="hardAlpha"/><feOffset dx="-1.511" dy="-1.511"/><feGaussianBlur stdDeviation="2.644"/><feComposite in2="hardAlpha" operator="arithmetic" k2="-1" k3="1"/><feColorMatrix values="0 0 0 0 0.0881076 0 0 0 0 0.524177 0 0 0 0 0.729167 0 0 0 1 0"/><feBlend in2="effect2_innerShadow" result="effect3_innerShadow"/></filter><filter id="filter1_dii" x="26.139" y="84.16" width="66.723" height="53.723" filterUnits="userSpaceOnUse" color-interpolation-filters="sRGB"><feFlood flood-opacity="0" result="BackgroundImageFix"/><feColorMatrix in="SourceAlpha" values="0 0 0 0 0 0 0 0 0 0 0 0 0 0 0 0 0 0 127 0" result="hardAlpha"/><feOffset dy="3.021"/><feGaussianBlur stdDeviation="7.931"/><feColorMatrix values="0 0 0 0 0.109804 0 0 0 0 0.360784 0 0 0 0 0.737255 0 0 0 0.15 0"/><feBlend in2="BackgroundImageFix" result="effect1_dropShadow"/><feBlend in="SourceGraphic" in2="effect1_dropShadow" result="shape"/><feColorMatrix in="SourceAlpha" values="0 0 0 0 0 0 0 0 0 0 0 0 0 0 0 0 0 0 127 0" result="hardAlpha"/><feOffset dx="3.777" dy="3.021"/><feGaussianBlur stdDeviation="4.91"/><feComposite in2="hardAlpha" operator="arithmetic" k2="-1" k3="1"/><feColorMatrix values="0 0 0 0 1 0 0 0 0 0.600905 0 0 0 0 0.475 0 0 0 0.82 0"/><feBlend in2="shape" result="effect2_innerShadow"/><feColorMatrix in="SourceAlpha" values="0 0 0 0 0 0 0 0 0 0 0 0 0 0 0 0 0 0 127 0" result="hardAlpha"/><feOffset dx="-1.511" dy="-1.511"/><feGaussianBlur stdDeviation="2.644"/><feComposite in2="hardAlpha" operator="arithmetic" k2="-1" k3="1"/><feColorMatrix values="0 0 0 0 0.791667 0 0 0 0 0.232485 0 0 0 0 0.0560764 0 0 0 1 0"/><feBlend in2="effect2_innerShadow" result="effect3_innerShadow"/></filter><filter id="filter2_iii" x="46.734" y="101.734" width="26.043" height="11.532" filterUnits="userSpaceOnUse" color-interpolation-filters="sRGB"><feFlood flood-opacity="0" result="BackgroundImageFix"/><feBlend in="SourceGraphic" in2="BackgroundImageFix" result="shape"/><feColorMatrix in="SourceAlpha" values="0 0 0 0 0 0 0 0 0 0 0 0 0 0 0 0 0 0 127 0" result="hardAlpha"/><feOffset dx="-2.266" dy="-2.266"/><feGaussianBlur stdDeviation="3.777"/><feComposite in2="hardAlpha" operator="arithmetic" k2="-1" k3="1"/><feColorMatrix values="0 0 0 0 0.24375 0 0 0 0 0.588118 0 0 0 0 0.75 0 0 0 0.54 0"/><feBlend in2="shape" result="effect1_innerShadow"/><feColorMatrix in="SourceAlpha" values="0 0 0 0 0 0 0 0 0 0 0 0 0 0 0 0 0 0 127 0" result="hardAlpha"/><feOffset dx="3.777" dy="2.266"/><feGaussianBlur stdDeviation="3.021"/><feComposite in2="hardAlpha" operator="arithmetic" k2="-1" k3="1"/><feColorMatrix values="0 0 0 0 1 0 0 0 0 1 0 0 0 0 1 0 0 0 1 0"/><feBlend in2="effect1_innerShadow" result="effect2_innerShadow"/><feColorMatrix in="SourceAlpha" values="0 0 0 0 0 0 0 0 0 0 0 0 0 0 0 0 0 0 127 0" result="hardAlpha"/><feOffset dx=".755" dy="-.755"/><feGaussianBlur stdDeviation="2.266"/><feComposite in2="hardAlpha" operator="arithmetic" k2="-1" k3="1"/><feColorMatrix values="0 0 0 0 1 0 0 0 0 1 0 0 0 0 1 0 0 0 0.59 0"/><feBlend in2="effect2_innerShadow" result="effect3_innerShadow"/></filter><filter id="filter3_dii" x="75.138" y="27.16" width="52.723" height="38.723" filterUnits="userSpaceOnUse" color-interpolation-filters="sRGB"><feFlood flood-opacity="0" result="BackgroundImageFix"/><feColorMatrix in="SourceAlpha" values="0 0 0 0 0 0 0 0 0 0 0 0 0 0 0 0 0 0 127 0" result="hardAlpha"/><feOffset dy="3.021"/><feGaussianBlur stdDeviation="7.931"/><feColorMatrix values="0 0 0 0 0.725 0 0 0 0 0.478369 0 0 0 0 0.0332292 0 0 0 0.22 0"/><feBlend in2="BackgroundImageFix" result="effect1_dropShadow"/><feBlend in="SourceGraphic" in2="effect1_dropShadow" result="shape"/><feColorMatrix in="SourceAlpha" values="0 0 0 0 0 0 0 0 0 0 0 0 0 0 0 0 0 0 127 0" result="hardAlpha"/><feOffset dx="3.777" dy="3.021"/><feGaussianBlur stdDeviation="4.91"/><feComposite in2="hardAlpha" operator="arithmetic" k2="-1" k3="1"/><feColorMatrix values="0 0 0 0 1 0 0 0 0 0.600905 0 0 0 0 0.475 0 0 0 0.82 0"/><feBlend in2="shape" result="effect2_innerShadow"/><feColorMatrix in="SourceAlpha" values="0 0 0 0 0 0 0 0 0 0 0 0 0 0 0 0 0 0 127 0" result="hardAlpha"/><feOffset dx="-1.511" dy="-1.511"/><feGaussianBlur stdDeviation="2.644"/><feComposite in2="hardAlpha" operator="arithmetic" k2="-1" k3="1"/><feColorMatrix values="0 0 0 0 0.791667 0 0 0 0 0.232485 0 0 0 0 0.0560764 0 0 0 1 0"/><feBlend in2="effect2_innerShadow" result="effect3_innerShadow"/></filter><filter id="filter4_dii" x="10.054" y="29.075" width="101.893" height="77.893" filterUnits="userSpaceOnUse" color-interpolation-filters="sRGB"><feFlood flood-opacity="0" result="BackgroundImageFix"/><feColorMatrix in="SourceAlpha" values="0 0 0 0 0 0 0 0 0 0 0 0 0 0 0 0 0 0 127 0" result="hardAlpha"/><feOffset dy="3.021"/><feGaussianBlur stdDeviation="13.973"/><feColorMatrix values="0 0 0 0 0.110625 0 0 0 0 0.361375 0 0 0 0 0.7375 0 0 0 0.15 0"/><feBlend in2="BackgroundImageFix" result="effect1_dropShadow"/><feBlend in="SourceGraphic" in2="effect1_dropShadow" result="shape"/><feColorMatrix in="SourceAlpha" values="0 0 0 0 0 0 0 0 0 0 0 0 0 0 0 0 0 0 127 0" result="hardAlpha"/><feOffset dx="3.777" dy="3.021"/><feGaussianBlur stdDeviation="4.91"/><feComposite in2="hardAlpha" operator="arithmetic" k2="-1" k3="1"/><feColorMatrix values="0 0 0 0 0.4875 0 0 0 0 0.836119 0 0 0 0 1 0 0 0 0.82 0"/><feBlend in2="shape" result="effect2_innerShadow"/><feColorMatrix in="SourceAlpha" values="0 0 0 0 0 0 0 0 0 0 0 0 0 0 0 0 0 0 127 0" result="hardAlpha"/><feOffset dx="-1.511" dy="-1.511"/><feGaussianBlur stdDeviation="2.644"/><feComposite in2="hardAlpha" operator="arithmetic" k2="-1" k3="1"/><feColorMatrix values="0 0 0 0 0.0881076 0 0 0 0 0.524177 0 0 0 0 0.729167 0 0 0 1 0"/><feBlend in2="effect2_innerShadow" result="effect3_innerShadow"/></filter><filter id="filter5_dii" x=".054" y="43.075" width="174.893" height="91.893" filterUnits="userSpaceOnUse" color-interpolation-filters="sRGB"><feFlood flood-opacity="0" result="BackgroundImageFix"/><feColorMatrix in="SourceAlpha" values="0 0 0 0 0 0 0 0 0 0 0 0 0 0 0 0 0 0 127 0" result="hardAlpha"/><feOffset dy="3.021"/><feGaussianBlur stdDeviation="13.973"/><feColorMatrix values="0 0 0 0 0.110625 0 0 0 0 0.361375 0 0 0 0 0.7375 0 0 0 0.15 0"/><feBlend in2="BackgroundImageFix" result="effect1_dropShadow"/><feBlend in="SourceGraphic" in2="effect1_dropShadow" result="shape"/><feColorMatrix in="SourceAlpha" values="0 0 0 0 0 0 0 0 0 0 0 0 0 0 0 0 0 0 127 0" result="hardAlpha"/><feOffset dx="3.777" dy="3.021"/><feGaussianBlur stdDeviation="4.91"/><feComposite in2="hardAlpha" operator="arithmetic" k2="-1" k3="1"/><feColorMatrix values="0 0 0 0 0.4875 0 0 0 0 0.836119 0 0 0 0 1 0 0 0 0.82 0"/><feBlend in2="shape" result="effect2_innerShadow"/><feColorMatrix in="SourceAlpha" values="0 0 0 0 0 0 0 0 0 0 0 0 0 0 0 0 0 0 127 0" result="hardAlpha"/><feOffset dx="-1.511" dy="-1.511"/><feGaussianBlur stdDeviation="2.644"/><feComposite in2="hardAlpha" operator="arithmetic" k2="-1" k3="1"/><feColorMatrix values="0 0 0 0 0.0881076 0 0 0 0 0.524177 0 0 0 0 0.729167 0 0 0 1 0"/><feBlend in2="effect2_innerShadow" result="effect3_innerShadow"/></filter><filter id="filter6_dii" x="31.139" y="14.16" width="63.723" height="45.723" filterUnits="userSpaceOnUse" color-interpolation-filters="sRGB"><feFlood flood-opacity="0" result="BackgroundImageFix"/><feColorMatrix in="SourceAlpha" values="0 0 0 0 0 0 0 0 0 0 0 0 0 0 0 0 0 0 127 0" result="hardAlpha"/><feOffset dy="3.021"/><feGaussianBlur stdDeviation="7.931"/><feColorMatrix values="0 0 0 0 0.725 0 0 0 0 0.478369 0 0 0 0 0.0332292 0 0 0 0.22 0"/><feBlend in2="BackgroundImageFix" result="effect1_dropShadow"/><feBlend in="SourceGraphic" in2="effect1_dropShadow" result="shape"/><feColorMatrix in="SourceAlpha" values="0 0 0 0 0 0 0 0 0 0 0 0 0 0 0 0 0 0 127 0" result="hardAlpha"/><feOffset dx="3.777" dy="3.021"/><feGaussianBlur stdDeviation="4.91"/><feComposite in2="hardAlpha" operator="arithmetic" k2="-1" k3="1"/><feColorMatrix values="0 0 0 0 1 0 0 0 0 0.600905 0 0 0 0 0.475 0 0 0 0.82 0"/><feBlend in2="shape" result="effect2_innerShadow"/><feColorMatrix in="SourceAlpha" values="0 0 0 0 0 0 0 0 0 0 0 0 0 0 0 0 0 0 127 0" result="hardAlpha"/><feOffset dx="-1.511" dy="-1.511"/><feGaussianBlur stdDeviation="2.644"/><feComposite in2="hardAlpha" operator="arithmetic" k2="-1" k3="1"/><feColorMatrix values="0 0 0 0 0.791667 0 0 0 0 0.232485 0 0 0 0 0.0560764 0 0 0 1 0"/><feBlend in2="effect2_innerShadow" result="effect3_innerShadow"/></filter><filter id="filter7_dii" x="31.139" y="24.16" width="63.723" height="49.723" filterUnits="userSpaceOnUse" color-interpolation-filters="sRGB"><feFlood flood-opacity="0" result="BackgroundImageFix"/><feColorMatrix in="SourceAlpha" values="0 0 0 0 0 0 0 0 0 0 0 0 0 0 0 0 0 0 127 0" result="hardAlpha"/><feOffset dy="3.021"/><feGaussianBlur stdDeviation="7.931"/><feColorMatrix values="0 0 0 0 0.725 0 0 0 0 0.478369 0 0 0 0 0.0332292 0 0 0 0.22 0"/><feBlend in2="BackgroundImageFix" result="effect1_dropShadow"/><feBlend in="SourceGraphic" in2="effect1_dropShadow" result="shape"/><feColorMatrix in="SourceAlpha" values="0 0 0 0 0 0 0 0 0 0 0 0 0 0 0 0 0 0 127 0" result="hardAlpha"/><feOffset dx="3.777" dy="3.021"/><feGaussianBlur stdDeviation="4.91"/><feComposite in2="hardAlpha" operator="arithmetic" k2="-1" k3="1"/><feColorMatrix values="0 0 0 0 1 0 0 0 0 0.600905 0 0 0 0 0.475 0 0 0 0.82 0"/><feBlend in2="shape" result="effect2_innerShadow"/><feColorMatrix in="SourceAlpha" values="0 0 0 0 0 0 0 0 0 0 0 0 0 0 0 0 0 0 127 0" result="hardAlpha"/><feOffset dx="-1.511" dy="-1.511"/><feGaussianBlur stdDeviation="2.644"/><feComposite in2="hardAlpha" operator="arithmetic" k2="-1" k3="1"/><feColorMatrix values="0 0 0 0 0.791667 0 0 0 0 0.232485 0 0 0 0 0.0560764 0 0 0 1 0"/><feBlend in2="effect2_innerShadow" result="effect3_innerShadow"/></filter><filter id="filter8_dii" x="96.138" y="70.16" width="66.723" height="67.723" filterUnits="userSpaceOnUse" color-interpolation-filters="sRGB"><feFlood flood-opacity="0" result="BackgroundImageFix"/><feColorMatrix in="SourceAlpha" values="0 0 0 0 0 0 0 0 0 0 0 0 0 0 0 0 0 0 127 0" result="hardAlpha"/><feOffset dy="3.021"/><feGaussianBlur stdDeviation="7.931"/><feColorMatrix values="0 0 0 0 0.109804 0 0 0 0 0.360784 0 0 0 0 0.737255 0 0 0 0.15 0"/><feBlend in2="BackgroundImageFix" result="effect1_dropShadow"/><feBlend in="SourceGraphic" in2="effect1_dropShadow" result="shape"/><feColorMatrix in="SourceAlpha" values="0 0 0 0 0 0 0 0 0 0 0 0 0 0 0 0 0 0 127 0" result="hardAlpha"/><feOffset dx="3.777" dy="3.021"/><feGaussianBlur stdDeviation="4.91"/><feComposite in2="hardAlpha" operator="arithmetic" k2="-1" k3="1"/><feColorMatrix values="0 0 0 0 1 0 0 0 0 0.600905 0 0 0 0 0.475 0 0 0 0.82 0"/><feBlend in2="shape" result="effect2_innerShadow"/><feColorMatrix in="SourceAlpha" values="0 0 0 0 0 0 0 0 0 0 0 0 0 0 0 0 0 0 127 0" result="hardAlpha"/><feOffset dx="-1.511" dy="-1.511"/><feGaussianBlur stdDeviation="2.644"/><feComposite in2="hardAlpha" operator="arithmetic" k2="-1" k3="1"/><feColorMatrix values="0 0 0 0 0.791667 0 0 0 0 0.232485 0 0 0 0 0.0560764 0 0 0 1 0"/><feBlend in2="effect2_innerShadow" result="effect3_innerShadow"/></filter><filter id="filter9_dii" x="77.054" y=".075" width="76.893" height="77.893" filterUnits="userSpaceOnUse" color-interpolation-filters="sRGB"><feFlood flood-opacity="0" result="BackgroundImageFix"/><feColorMatrix in="SourceAlpha" values="0 0 0 0 0 0 0 0 0 0 0 0 0 0 0 0 0 0 127 0" result="hardAlpha"/><feOffset dy="3.021"/><feGaussianBlur stdDeviation="13.973"/><feColorMatrix values="0 0 0 0 0.110625 0 0 0 0 0.361375 0 0 0 0 0.7375 0 0 0 0.15 0"/><feBlend in2="BackgroundImageFix" result="effect1_dropShadow"/><feBlend in="SourceGraphic" in2="effect1_dropShadow" result="shape"/><feColorMatrix in="SourceAlpha" values="0 0 0 0 0 0 0 0 0 0 0 0 0 0 0 0 0 0 127 0" result="hardAlpha"/><feOffset dx="3.777" dy="3.021"/><feGaussianBlur stdDeviation="4.91"/><feComposite in2="hardAlpha" operator="arithmetic" k2="-1" k3="1"/><feColorMatrix values="0 0 0 0 0.4875 0 0 0 0 0.836119 0 0 0 0 1 0 0 0 0.82 0"/><feBlend in2="shape" result="effect2_innerShadow"/><feColorMatrix in="SourceAlpha" values="0 0 0 0 0 0 0 0 0 0 0 0 0 0 0 0 0 0 127 0" result="hardAlpha"/><feOffset dx="-1.511" dy="-1.511"/><feGaussianBlur stdDeviation="2.644"/><feComposite in2="hardAlpha" operator="arithmetic" k2="-1" k3="1"/><feColorMatrix values="0 0 0 0 0.0881076 0 0 0 0 0.524177 0 0 0 0 0.729167 0 0 0 1 0"/><feBlend in2="effect2_innerShadow" result="effect3_innerShadow"/></filter><filter id="filter10_iii" x="116.734" y="87.734" width="27.043" height="26.532" filterUnits="userSpaceOnUse" color-interpolation-filters="sRGB"><feFlood flood-opacity="0" result="BackgroundImageFix"/><feBlend in="SourceGraphic" in2="BackgroundImageFix" result="shape"/><feColorMatrix in="SourceAlpha" values="0 0 0 0 0 0 0 0 0 0 0 0 0 0 0 0 0 0 127 0" result="hardAlpha"/><feOffset dx="-2.266" dy="-2.266"/><feGaussianBlur stdDeviation="3.777"/><feComposite in2="hardAlpha" operator="arithmetic" k2="-1" k3="1"/><feColorMatrix values="0 0 0 0 0.24375 0 0 0 0 0.588118 0 0 0 0 0.75 0 0 0 0.54 0"/><feBlend in2="shape" result="effect1_innerShadow"/><feColorMatrix in="SourceAlpha" values="0 0 0 0 0 0 0 0 0 0 0 0 0 0 0 0 0 0 127 0" result="hardAlpha"/><feOffset dx="3.777" dy="2.266"/><feGaussianBlur stdDeviation="3.021"/><feComposite in2="hardAlpha" operator="arithmetic" k2="-1" k3="1"/><feColorMatrix values="0 0 0 0 1 0 0 0 0 1 0 0 0 0 1 0 0 0 1 0"/><feBlend in2="effect1_innerShadow" result="effect2_innerShadow"/><feColorMatrix in="SourceAlpha" values="0 0 0 0 0 0 0 0 0 0 0 0 0 0 0 0 0 0 127 0" result="hardAlpha"/><feOffset dx=".755" dy="-.755"/><feGaussianBlur stdDeviation="2.266"/><feComposite in2="hardAlpha" operator="arithmetic" k2="-1" k3="1"/><feColorMatrix values="0 0 0 0 1 0 0 0 0 1 0 0 0 0 1 0 0 0 0.59 0"/><feBlend in2="effect2_innerShadow" result="effect3_innerShadow"/></filter><filter id="filter11_dii" x=".054" y="46.075" width="115.893" height="88.893" filterUnits="userSpaceOnUse" color-interpolation-filters="sRGB"><feFlood flood-opacity="0" result="BackgroundImageFix"/><feColorMatrix in="SourceAlpha" values="0 0 0 0 0 0 0 0 0 0 0 0 0 0 0 0 0 0 127 0" result="hardAlpha"/><feOffset dy="3.021"/><feGaussianBlur stdDeviation="13.973"/><feColorMatrix values="0 0 0 0 0.110625 0 0 0 0 0.361375 0 0 0 0 0.7375 0 0 0 0.15 0"/><feBlend in2="BackgroundImageFix" result="effect1_dropShadow"/><feBlend in="SourceGraphic" in2="effect1_dropShadow" result="shape"/><feColorMatrix in="SourceAlpha" values="0 0 0 0 0 0 0 0 0 0 0 0 0 0 0 0 0 0 127 0" result="hardAlpha"/><feOffset dx="3.777" dy="3.021"/><feGaussianBlur stdDeviation="4.91"/><feComposite in2="hardAlpha" operator="arithmetic" k2="-1" k3="1"/><feColorMatrix values="0 0 0 0 0.4875 0 0 0 0 0.836119 0 0 0 0 1 0 0 0 0.82 0"/><feBlend in2="shape" result="effect2_innerShadow"/><feColorMatrix in="SourceAlpha" values="0 0 0 0 0 0 0 0 0 0 0 0 0 0 0 0 0 0 127 0" result="hardAlpha"/><feOffset dx="-1.511" dy="-1.511"/><feGaussianBlur stdDeviation="2.644"/><feComposite in2="hardAlpha" operator="arithmetic" k2="-1" k3="1"/><feColorMatrix values="0 0 0 0 0.0881076 0 0 0 0 0.524177 0 0 0 0 0.729167 0 0 0 1 0"/><feBlend in2="effect2_innerShadow" result="effect3_innerShadow"/></filter></defs></svg>