<svg xmlns="http://www.w3.org/2000/svg" viewBox="0 0 128.5 58.8"><path fill="#FF5722" d="M58.1 11.5C54.6 6.4 51 2.3 44.8.7 39-1 32.4.3 28.4 4.7A22 22 0 0023.5 18a24.9 24.9 0 00-7.7 2A21.5 21.5 0 003.4 35.9c-1.2 6.4.1 12.8 2.8 18.7l-4-1.7a1.6 1.6 0 00-2 .5 1.5 1.5 0 00.5 2l4.7 2 2.2 1a3.6 3.6 0 001.4.4 1.7 1.7 0 001.5-.7 5 5 0 00.7-2.7l.2-2.4.4-5.1a1.5 1.5 0 00-1.5-1.5 1.5 1.5 0 00-1.5 1.5l-.4 4.4A28.8 28.8 0 016 39.5a19.6 19.6 0 017-14.4A20 20 0 0123.4 21l.2 2.1a32.5 32.5 0 007 17.6c3.7 4.6 9.7 8 15.6 5.3a8.6 8.6 0 005-6.9 13.6 13.6 0 00-2.8-9.3 27.9 27.9 0 00-22-11.9 24 24 0 012-7.5 12 12 0 016-6.3 14.2 14.2 0 018.1-.9c6 1.1 10.6 4.6 14 9.5 1 1.6 2.7.4 1.6-1.2zM47.4 41a6.3 6.3 0 01-5.7 3 10.6 10.6 0 01-7-3.3A28.4 28.4 0 0126.4 21a25 25 0 0115.2 5.8c3.7 3.2 8.7 9.2 5.8 14.3zm18.3-27l2-7H70l-3.2 9.2h-2L61.5 7h2.1zm8.6 2.3a2 2 0 01-.1-.7 2.2 2.2 0 01-1.8.8 2.4 2.4 0 01-1.6-.6 1.9 1.9 0 01-.7-1.5 2 2 0 01.8-1.7 4 4 0 012.3-.5h.9v-.4a1.1 1.1 0 00-.3-.8 1 1 0 00-.7-.3 1.1 1.1 0 00-.8.3.8.8 0 00-.2.6h-1.8a1.9 1.9 0 01.3-1.1 2.6 2.6 0 011-.8 3.9 3.9 0 011.5-.3 3 3 0 012 .6 2.3 2.3 0 01.8 1.8v3a3.2 3.2 0 00.2 1.5zM72.8 15a1.6 1.6 0 00.8-.2 1.2 1.2 0 00.5-.5v-1.2h-.7c-1 0-1.4.4-1.5 1v.1a.7.7 0 00.3.6 1 1 0 00.6.2zm6.5 1.3h-1.9V6.5h1.9zm5.6-.7a2.3 2.3 0 01-1.9.8 2.2 2.2 0 01-1.7-.6 2.7 2.7 0 01-.6-2V9.5h1.9v4.4c0 .8.3 1.1 1 1.1a1.3 1.3 0 001.3-.6v-5h1.8v7H85zm6.3.8a3.4 3.4 0 01-2.4-1 3.3 3.3 0 01-1-2.4v-.2a4.1 4.1 0 01.4-1.8 2.9 2.9 0 011-1.3 3.1 3.1 0 011.8-.4 2.9 2.9 0 012.2.8 3.6 3.6 0 01.8 2.6v.7h-4.3a1.7 1.7 0 00.5 1.1 1.6 1.6 0 001.1.4 2 2 0 001.7-.8l1 1a2.8 2.8 0 01-1.2 1 3.6 3.6 0 01-1.6.3zm-.2-5.7a1.2 1.2 0 00-.9.4 2 2 0 00-.4 1h2.5V12a1.4 1.4 0 00-.3-1 1.2 1.2 0 00-.9-.3zm13.5 2.2a4.1 4.1 0 01-.7 2.5 2.3 2.3 0 01-2 1 2.1 2.1 0 01-1.6-.7v3.2h-1.9V9.4h1.7v.7a2.1 2.1 0 011.8-.8 2.3 2.3 0 012 .9 4.2 4.2 0 01.7 2.6zm-1.8-.1a2.7 2.7 0 00-.4-1.5 1.1 1.1 0 00-1-.5 1.2 1.2 0 00-1.1.6v2.8a1.2 1.2 0 001.1.7c1 0 1.4-.7 1.4-2.1zm6.9 3.5a2 2 0 01-.2-.7 2.2 2.2 0 01-1.7.8 2.4 2.4 0 01-1.7-.6 1.9 1.9 0 01-.7-1.5 2 2 0 01.9-1.7 4 4 0 012.3-.5h.8v-.4a1 1 0 00-.2-.8 1 1 0 00-.8-.3 1 1 0 00-.7.3.7.7 0 00-.3.6h-1.8a1.8 1.8 0 01.4-1.1 2.4 2.4 0 011-.8 3.8 3.8 0 011.5-.3 3 3 0 012 .6 2.3 2.3 0 01.7 1.8v3a3.2 3.2 0 00.3 1.5zm-1.5-1.3a1.6 1.6 0 00.8-.2 1.2 1.2 0 00.5-.5v-1.2h-.7c-1 0-1.4.4-1.5 1v.1a.7.7 0 00.3.6 1 1 0 00.6.2zm7.4 0a1.2 1.2 0 00.8-.4 1 1 0 00.3-.7h1.7a2.3 2.3 0 01-.3 1.3 2.6 2.6 0 01-1 .9 3.2 3.2 0 01-1.5.3 3 3 0 01-2.3-1 3.7 3.7 0 01-.9-2.5v-.2a3.6 3.6 0 01.9-2.5 3 3 0 012.3-1 2.9 2.9 0 012 .8 2.6 2.6 0 01.9 1.9h-1.8a1.3 1.3 0 00-.3-.9 1.1 1.1 0 00-.8-.3 1.1 1.1 0 00-1 .5 2.8 2.8 0 00-.3 1.5v.2a2.8 2.8 0 00.3 1.5 1.1 1.1 0 001 .5zm6.4-1.5l-.7.7v2h-1.8V6.6h1.8V12l.4-.4 1.7-2.1h2.2l-2.4 2.9 2.7 4h-2.1zm5.5.9a1 1 0 01.8.3 1 1 0 010 1.4 1.1 1.1 0 01-1.5 0 .9.9 0 01-.3-.7 1 1 0 01.3-.7 1 1 0 01.7-.3zm.8-1h-1.5l-.2-6.4h2z" class="a"/></svg>